<?xml version="1.0" standalone="no"?>
<!DOCTYPE svg PUBLIC "-//W3C//DTD SVG 20010904//EN"
 "http://www.w3.org/TR/2001/REC-SVG-20010904/DTD/svg10.dtd">
<svg version="1.0" xmlns="http://www.w3.org/2000/svg"
 width="292.000000pt" height="292.000000pt" viewBox="0 0 292.000000 292.000000"
 preserveAspectRatio="xMidYMid meet">
<metadata>
Created by potrace 1.14, written by Peter Selinger 2001-2017
</metadata>
<g transform="translate(0.000000,292.000000) scale(0.100000,-0.100000)"
fill="#000000" stroke="none">
<path d="M1310 2864 c-255 -41 -406 -93 -580 -197 -318 -191 -566 -534 -644
-892 -26 -117 -27 -126 -33 -258 -18 -395 128 -768 412 -1052 104 -104 229
-196 350 -258 73 -37 208 -93 247 -102 13 -2 64 -14 113 -26 67 -15 133 -21
255 -24 152 -3 190 0 330 28 92 18 219 62 315 110 61 30 176 96 185 106 3 4
23 18 45 33 52 36 201 179 252 243 119 149 240 390 270 535 35 172 41 233 38
380 -2 85 -6 166 -10 180 -14 59 -23 115 -19 122 2 3 0 9 -5 12 -5 3 -12 22
-16 43 -3 20 -20 70 -36 112 -131 332 -369 598 -674 753 -210 106 -377 148
-610 153 -88 1 -171 1 -185 -1z m346 -724 c104 -27 224 -85 224 -109 0 -10 -7
-24 -15 -31 -12 -10 -32 -5 -107 28 -51 22 -106 43 -123 46 -16 4 -41 9 -55
11 -34 7 -187 7 -235 0 -62 -10 -132 -32 -207 -67 -62 -28 -70 -30 -84 -16
-26 26 -8 51 57 82 81 38 164 63 235 71 33 4 60 8 62 10 9 8 184 -9 248 -25z
m17 -180 c140 -42 261 -126 351 -245 42 -54 44 -70 14 -86 -19 -10 -25 -8 -52
27 -87 111 -208 198 -326 235 -90 29 -243 36 -339 15 -145 -31 -275 -114 -376
-239 -39 -49 -59 -55 -78 -25 -8 13 -5 25 16 55 172 246 491 353 790 263z
m-122 -145 c215 -34 392 -204 443 -429 27 -115 8 -204 -55 -261 -49 -44 -80
-57 -139 -57 -108 -2 -188 79 -206 208 -8 60 -36 102 -80 120 -48 20 -86 17
-125 -9 -73 -48 -84 -122 -41 -273 30 -105 146 -224 263 -270 73 -29 89 -47
64 -74 -14 -15 -22 -16 -53 -7 -87 26 -185 94 -249 172 -42 51 -89 141 -99
187 -17 80 -20 108 -19 153 6 194 234 274 362 126 23 -26 48 -95 44 -119 -4
-24 20 -80 46 -106 52 -52 136 -52 189 1 37 37 45 68 39 141 -16 175 -131 331
-296 399 -92 37 -221 43 -316 15 -164 -50 -286 -175 -329 -337 -19 -71 -12
-253 13 -326 21 -60 16 -99 -11 -99 -58 0 -106 296 -71 435 71 282 336 456
626 410z m-25 -170 c22 -2 67 -18 101 -35 112 -56 196 -177 206 -300 5 -58 0
-70 -29 -70 -25 0 -26 3 -39 84 -15 90 -87 185 -173 227 -38 19 -64 23 -137
24 -80 0 -95 -3 -135 -26 -148 -88 -200 -231 -151 -420 25 -97 66 -179 128
-255 28 -33 48 -66 45 -76 -4 -22 -39 -33 -57 -18 -32 27 -97 121 -133 195
-83 166 -90 365 -16 490 55 94 173 173 273 182 31 3 58 7 60 9 2 2 7 1 11 -1
4 -3 25 -7 46 -10z m-48 -347 c5 -7 12 -31 15 -53 9 -66 15 -85 41 -130 55
-93 140 -138 264 -139 92 -1 115 -15 87 -52 -11 -16 -26 -19 -102 -18 -107 0
-178 28 -247 97 -66 66 -98 135 -111 241 -7 54 25 87 53 54z"/>
</g>
</svg>
